<svg width="7" height="7" viewBox="0 0 7 7" fill="none" xmlns="http://www.w3.org/2000/svg">
<path d="M3.34 0.656121C3.57467 0.656121 3.772 0.741455 3.932 0.912122C4.10267 1.07212 4.188 1.26412 4.188 1.48812C4.188 1.72279 4.108 1.92012 3.948 2.08012C3.788 2.22946 3.58533 2.30412 3.34 2.30412C3.116 2.30412 2.924 2.22412 2.764 2.06412C2.604 1.90412 2.524 1.71212 2.524 1.48812C2.524 1.26412 2.604 1.07212 2.764 0.912122C2.93467 0.741455 3.12667 0.656121 3.34 0.656121ZM2.492 6.00012C2.492 5.76546 2.572 5.56279 2.732 5.39212C2.90267 5.22146 3.1 5.13612 3.324 5.13612C3.548 5.13612 3.74533 5.22146 3.916 5.39212C4.08667 5.56279 4.172 5.76546 4.172 6.00012C4.172 6.21346 4.08667 6.40546 3.916 6.57612C3.74533 6.74679 3.548 6.83212 3.324 6.83212C3.11067 6.83212 2.91867 6.74679 2.748 6.57612C2.57733 6.40546 2.492 6.21346 2.492 6.00012ZM4.38 2.65612C4.38 2.42146 4.45467 2.22412 4.604 2.06412C4.764 1.89345 4.956 1.80812 5.18 1.80812C5.41467 1.80812 5.612 1.89345 5.772 2.06412C5.94267 2.22412 6.028 2.42146 6.028 2.65612C6.028 2.88012 5.94267 3.07745 5.772 3.24812C5.612 3.40812 5.41467 3.48812 5.18 3.48812C4.956 3.48812 4.764 3.40812 4.604 3.24812C4.45467 3.07745 4.38 2.88012 4.38 2.65612ZM5.18 3.95212C5.41467 3.95212 5.612 4.03212 5.772 4.19212C5.94267 4.35212 6.028 4.54946 6.028 4.78412C6.028 5.01879 5.94267 5.22146 5.772 5.39212C5.612 5.55212 5.41467 5.63212 5.18 5.63212C4.956 5.63212 4.764 5.55212 4.604 5.39212C4.45467 5.22146 4.38 5.01879 4.38 4.78412C4.38 4.54946 4.45467 4.35212 4.604 4.19212C4.764 4.03212 4.956 3.95212 5.18 3.95212ZM1.452 3.95212C1.68667 3.95212 1.884 4.03212 2.044 4.19212C2.204 4.35212 2.284 4.54946 2.284 4.78412C2.284 5.01879 2.204 5.22146 2.044 5.39212C1.884 5.55212 1.68667 5.63212 1.452 5.63212C1.228 5.63212 1.036 5.55212 0.876 5.39212C0.716 5.22146 0.636 5.01879 0.636 4.78412C0.636 4.54946 0.716 4.35212 0.876 4.19212C1.036 4.03212 1.228 3.95212 1.452 3.95212ZM0.636 2.65612C0.636 2.42146 0.716 2.22412 0.876 2.06412C1.036 1.89345 1.228 1.80812 1.452 1.80812C1.68667 1.80812 1.884 1.89345 2.044 2.06412C2.204 2.22412 2.284 2.42146 2.284 2.65612C2.284 2.88012 2.204 3.07745 2.044 3.24812C1.884 3.40812 1.68667 3.48812 1.452 3.48812C1.228 3.48812 1.036 3.40812 0.876 3.24812C0.716 3.07745 0.636 2.88012 0.636 2.65612Z" fill="#A94442"/>
</svg>
