<svg width="59" height="59" viewBox="0 0 59 59" fill="none" xmlns="http://www.w3.org/2000/svg">
<path d="M2.31817 44.6356L18.5426 28.4112L1.25654 11.1252C0.821804 10.6904 0.821804 9.98549 1.25654 9.55064L10.4511 0.356128C10.8859 -0.0784989 11.5906 -0.0784989 12.0256 0.356128L29.3116 17.6422L44.6521 2.30171C44.6524 2.30137 44.6529 2.30104 44.6532 2.3007L44.8058 2.14818C44.9708 1.98331 45.1837 1.87432 45.4139 1.8368L56.6084 0.0146831C56.9625 -0.0427624 57.3214 0.0732419 57.5745 0.326292C57.8277 0.579453 57.9437 0.938933 57.8861 1.29229L56.0641 12.4868C56.0266 12.7171 55.9177 12.9298 55.7528 13.0949L55.6002 13.2475C55.5999 13.2479 55.5996 13.2483 55.5992 13.2486L40.2587 28.5892L57.5447 45.8753C57.9794 46.31 57.9794 47.0149 57.5447 47.4498L48.3502 56.6443C48.1328 56.8616 47.8479 56.9704 47.563 56.9704C47.2781 56.9704 46.9932 56.8616 46.7758 56.6443L29.4896 39.3582L13.2651 55.5827C12.3509 56.4968 11.1354 57.0002 9.84264 57.0002C8.5499 57.0002 7.33441 56.4968 6.42029 55.5827L2.31828 51.4805C1.40405 50.5664 0.900623 49.3509 0.900623 48.0582C0.900623 46.7654 1.40405 45.5499 2.31817 44.6356ZM11.2383 2.71785L3.61826 10.3378L6.17771 12.8973L9.05867 10.0162C9.49341 9.58182 10.1981 9.58159 10.6332 10.0162C11.0679 10.451 11.0679 11.1559 10.6332 11.5907L7.75223 14.4718L11.4993 18.2189L13.6275 16.0908C14.0623 15.6561 14.767 15.6561 15.202 16.0908C15.6367 16.5255 15.6367 17.2304 15.202 17.6653L13.0738 19.7934L16.8209 23.5405L19.702 20.6596C20.1369 20.2249 20.8416 20.2249 21.2765 20.6596C21.7113 21.0943 21.7113 21.7992 21.2765 22.2341L18.3955 25.115L20.1172 26.8367L27.7372 19.2167L11.2383 2.71785ZM45.4394 4.66343L9.74757 40.3554L11.0606 41.6683L46.7524 5.97644L45.4394 4.66343ZM55.44 2.46068L47.6531 3.72816L54.1727 10.2478L55.44 2.46068ZM32.7858 39.5054L34.9139 37.3771C35.3486 36.9427 36.0533 36.9425 36.4885 37.3771C36.9232 37.8118 36.9232 38.5168 36.4885 38.9516L34.3603 41.0799L38.1074 44.827L40.9885 41.9459C41.4233 41.5113 42.128 41.5113 42.563 41.9459C42.9977 42.3807 42.9977 43.0856 42.563 43.5204L39.6819 46.4015L43.429 50.1486L45.5573 48.0205C45.9921 47.5858 46.6968 47.5858 47.1318 48.0205C47.5665 48.4552 47.5665 49.1601 47.1318 49.595L45.0035 51.7231L47.563 54.2826L55.183 46.6626L38.6842 30.1637L31.0642 37.7837L32.7858 39.5054ZM17.5456 48.1533L53.2375 12.4614L48.3268 7.55096L12.635 43.2428L14.658 45.2659L44.6521 15.2718C45.0869 14.8372 45.7916 14.8372 46.2266 15.2718C46.6613 15.7066 46.6613 16.4115 46.2266 16.8463L16.2326 46.8403L17.5456 48.1533ZM3.89269 49.906L7.99481 54.0083C8.48845 54.5019 9.14462 54.7736 9.84275 54.7736C10.5409 54.7736 11.1972 54.5019 11.6908 54.0082L15.9712 49.7278L8.17316 41.9298L3.8928 46.2101C3.39906 46.7038 3.1273 47.3601 3.1273 48.0582C3.1273 48.7563 3.39894 49.4125 3.89269 49.906Z" fill="#FF650C"/>
<path d="M47.1953 12.9939C47.2098 12.9227 47.231 12.8526 47.2588 12.7857C47.2866 12.7179 47.3211 12.6533 47.3612 12.5932C47.4013 12.5319 47.448 12.4751 47.4993 12.4239C47.5505 12.3727 47.6082 12.3259 47.6685 12.2858C47.7298 12.2459 47.7943 12.2112 47.8611 12.1834C47.9279 12.1556 47.9979 12.1334 48.0693 12.1201C48.2129 12.091 48.3609 12.091 48.5046 12.1201C48.5758 12.1334 48.6459 12.1556 48.7126 12.1834C48.7795 12.2112 48.8441 12.2459 48.9052 12.2858C48.9653 12.3259 49.0232 12.3727 49.0744 12.4239C49.1258 12.4751 49.1725 12.5319 49.2125 12.5932C49.2526 12.6533 49.2871 12.7179 49.3149 12.7857C49.3427 12.8526 49.3639 12.9226 49.3784 12.9939C49.3928 13.0651 49.4006 13.1386 49.4006 13.211C49.4006 13.2832 49.3928 13.3568 49.3784 13.4281C49.3639 13.4993 49.3427 13.5694 49.3149 13.6362C49.2871 13.704 49.2526 13.7686 49.2125 13.8287C49.1725 13.89 49.1258 13.9468 49.0744 13.9981C49.0232 14.0493 48.9655 14.096 48.9052 14.136C48.844 14.1761 48.7794 14.2106 48.7126 14.2384C48.6458 14.2662 48.5758 14.2885 48.5046 14.3019C48.4322 14.3163 48.3597 14.3241 48.2863 14.3241C48.214 14.3241 48.1415 14.3163 48.0693 14.3019C47.9979 14.2885 47.9278 14.2662 47.8611 14.2384C47.7942 14.2106 47.7297 14.1761 47.6685 14.136C47.6084 14.096 47.5505 14.0493 47.4993 13.9981C47.448 13.9468 47.4013 13.89 47.3612 13.8287C47.3211 13.7686 47.2866 13.704 47.2588 13.6362C47.231 13.5693 47.2098 13.4993 47.1953 13.4281C47.1809 13.3567 47.1732 13.2832 47.1732 13.211C47.1732 13.1386 47.1809 13.065 47.1953 12.9939Z" fill="#FF650C"/>
</svg>
