<svg width="60" height="59" viewBox="0 0 60 59" fill="none" xmlns="http://www.w3.org/2000/svg">
<g clip-path="url(#clip0_101_443)">
<path d="M40.7044 36.7598C40.0681 36.7598 39.5521 37.2757 39.5521 37.9121V45.8633C39.5521 49.0403 36.9674 51.625 33.7904 51.625H21.3487C20.7125 51.625 20.1969 52.1404 20.1964 52.7765L20.1948 55.0676L17.4444 52.3173C17.2663 51.9086 16.8589 51.625 16.3875 51.625H8.89973C5.72272 51.625 3.13802 49.0403 3.13802 45.8633V28.1172C3.13802 24.9402 5.72272 22.3555 8.89973 22.3555H20.5384C21.1747 22.3555 21.6908 21.8396 21.6908 21.2031C21.6908 20.5667 21.1747 20.0508 20.5384 20.0508H8.89973C4.45192 20.0508 0.833328 23.6694 0.833328 28.1172V45.8633C0.833328 50.3111 4.45192 53.9297 8.89973 53.9297H15.7974L20.5302 58.6625C20.7507 58.8829 21.0453 59 21.3453 59C21.4936 59 21.6433 58.9713 21.7856 58.9124C22.2162 58.7343 22.497 58.3144 22.4974 57.8485L22.5002 53.9297H33.7904C38.2382 53.9297 41.8568 50.3111 41.8568 45.8633V37.9121C41.8568 37.2757 41.3407 36.7598 40.7044 36.7598Z" fill="#FF650C"/>
<path d="M43.0846 0H40.1681C30.9328 0 23.4193 7.51351 23.4193 16.7489C23.4193 25.9842 30.9328 33.4976 40.168 33.4976H43.0845C44.5259 33.4976 45.9526 33.3145 47.3355 32.9527L51.6437 37.2585C51.8642 37.4787 52.1587 37.5958 52.4585 37.5958C52.6071 37.5958 52.7569 37.5671 52.8994 37.508C53.3299 37.3296 53.6107 36.9095 53.6107 36.4434V29.7764C55.4347 28.2993 56.9499 26.4333 58.0133 24.3487C59.2211 21.9811 59.8333 19.4241 59.8333 16.7489C59.8333 7.51351 52.3198 0 43.0846 0ZM51.7649 28.2941C51.4761 28.5118 51.306 28.8526 51.306 29.2146V33.6626L48.4861 30.8442C48.2667 30.625 47.9724 30.5069 47.6714 30.5069C47.5584 30.5069 47.4444 30.5236 47.333 30.5578C45.9614 30.9794 44.532 31.193 43.0846 31.193H40.1681C32.2035 31.193 25.7239 24.7134 25.7239 16.7489C25.7239 8.78432 32.2036 2.30469 40.1681 2.30469H43.0846C51.0491 2.30469 57.5286 8.78432 57.5286 16.7489C57.5286 21.3272 55.4279 25.5354 51.7649 28.2941Z" fill="#FF650C"/>
<path d="M46.8156 12.6089C46.6493 10.1964 44.7046 8.25174 42.2921 8.08545C40.9245 7.99154 39.6193 8.45282 38.6203 9.38541C37.6351 10.3051 37.0701 11.6052 37.0701 12.9524C37.0701 13.5888 37.5861 14.1047 38.2224 14.1047C38.8588 14.1047 39.3748 13.5888 39.3748 12.9524C39.3748 12.2311 39.6654 11.5627 40.193 11.0703C40.72 10.5783 41.4089 10.3348 42.1337 10.3848C43.4045 10.4724 44.4288 11.4967 44.5164 12.7674C44.6049 14.0508 43.7629 15.1849 42.5145 15.4643C41.5029 15.6906 40.7965 16.5696 40.7965 17.6017V20.3702C40.7965 21.0067 41.3126 21.5226 41.9489 21.5226C42.5853 21.5226 43.1012 21.0067 43.1011 20.3702V17.6938C45.4231 17.1329 46.9809 15.0082 46.8156 12.6089Z" fill="#FF650C"/>
<path d="M42.7637 24.1138C42.5493 23.8995 42.252 23.7762 41.9489 23.7762C41.6459 23.7762 41.3486 23.8995 41.1342 24.1138C40.9199 24.3282 40.7966 24.6255 40.7966 24.9285C40.7966 25.2327 40.92 25.5301 41.1342 25.7444C41.3486 25.9587 41.6459 26.0809 41.9489 26.0809C42.252 26.0809 42.5493 25.9587 42.7637 25.7444C42.978 25.5289 43.1013 25.2327 43.1013 24.9285C43.1013 24.6255 42.9779 24.3282 42.7637 24.1138Z" fill="#FF650C"/>
<path d="M32.5228 35.7227H8.20831C7.57199 35.7227 7.05597 36.2386 7.05597 36.875C7.05597 37.5114 7.57199 38.0273 8.20831 38.0273H32.5228C33.1592 38.0273 33.6751 37.5114 33.6751 36.875C33.6751 36.2386 33.1591 35.7227 32.5228 35.7227Z" fill="#FF650C"/>
<path d="M33.3374 42.5134C33.1231 42.2991 32.8258 42.1758 32.5228 42.1758C32.2197 42.1758 31.9224 42.2991 31.7081 42.5134C31.4936 42.7278 31.3704 43.0251 31.3704 43.3281C31.3704 43.6312 31.4937 43.9285 31.7081 44.1428C31.9224 44.3572 32.2197 44.4805 32.5228 44.4805C32.8258 44.4805 33.1231 44.3572 33.3374 44.1428C33.5518 43.9285 33.6751 43.6323 33.6751 43.3281C33.6751 43.0251 33.5517 42.7278 33.3374 42.5134Z" fill="#FF650C"/>
<path d="M27.9903 42.1758H8.20831C7.57199 42.1758 7.05597 42.6917 7.05597 43.3281C7.05597 43.9646 7.57199 44.4805 8.20831 44.4805H27.9903C28.6267 44.4805 29.1426 43.9646 29.1426 43.3281C29.1426 42.6917 28.6266 42.1758 27.9903 42.1758Z" fill="#FF650C"/>
<path d="M25.0325 29.2695H8.20831C7.57199 29.2695 7.05597 29.7854 7.05597 30.4219C7.05597 31.0583 7.57199 31.5742 8.20831 31.5742H25.0325C25.669 31.5742 26.1849 31.0583 26.1849 30.4219C26.1849 29.7854 25.6689 29.2695 25.0325 29.2695Z" fill="#FF650C"/>
</g>
<defs>
<clipPath id="clip0_101_443">
<rect width="59" height="59" fill="white" transform="translate(0.833328)"/>
</clipPath>
</defs>
</svg>
