<svg width="60" height="59" viewBox="0 0 60 59" fill="none" xmlns="http://www.w3.org/2000/svg">
<g clip-path="url(#clip0_101_416)">
<g clip-path="url(#clip1_101_416)">
<path d="M39.3942 52.2661H45.5815C45.8892 52.2661 46.1843 52.1443 46.4019 51.9276C46.6194 51.7109 46.7417 51.417 46.7417 51.1105C46.7417 50.804 46.6194 50.5101 46.4019 50.2934C46.1843 50.0767 45.8892 49.955 45.5815 49.955H39.3942C39.0865 49.955 38.7914 50.0767 38.5738 50.2934C38.3562 50.5101 38.234 50.804 38.234 51.1105C38.234 51.417 38.3562 51.7109 38.5738 51.9276C38.7914 52.1443 39.0865 52.2661 39.3942 52.2661Z" fill="#FF650C"/>
<path d="M51.7678 6.05946H50.2182C50.063 6.05491 49.9085 6.08142 49.7638 6.13742C49.6192 6.19341 49.4872 6.27777 49.3758 6.38547C49.2645 6.49318 49.1759 6.62205 49.1155 6.76446C49.055 6.90687 49.0239 7.05991 49.0239 7.21452C49.0239 7.36914 49.055 7.52218 49.1155 7.66459C49.1759 7.80699 49.2645 7.93587 49.3758 8.04357C49.4872 8.15128 49.6192 8.23563 49.7638 8.29163C49.9085 8.34763 50.063 8.37414 50.2182 8.36959H51.7678C51.923 8.37414 52.0775 8.34763 52.2222 8.29163C52.3669 8.23563 52.4988 8.15128 52.6102 8.04357C52.7215 7.93587 52.8101 7.80699 52.8705 7.66459C52.931 7.52218 52.9621 7.36914 52.9621 7.21452C52.9621 7.05991 52.931 6.90687 52.8705 6.76446C52.8101 6.62205 52.7215 6.49318 52.6102 6.38547C52.4988 6.27777 52.3669 6.19341 52.2222 6.13742C52.0775 6.08142 51.923 6.05491 51.7678 6.05946Z" fill="#FF650C"/>
<path d="M47.1281 56.6899H5.3696C4.85693 56.6893 4.36543 56.4862 4.00302 56.125C3.6406 55.7639 3.4369 55.2742 3.43663 54.7636V4.23641C3.43716 3.7263 3.64071 3.23721 4.00266 2.87632C4.36461 2.51544 4.85544 2.31219 5.36758 2.31113H8.45972C8.61208 2.31113 8.76295 2.28124 8.90371 2.22317C9.04447 2.1651 9.17236 2.07998 9.2801 1.97267C9.38783 1.86537 9.47329 1.73798 9.53159 1.59778C9.5899 1.45758 9.61991 1.30732 9.61991 1.15557C9.61991 1.00381 9.5899 0.85355 9.53159 0.71335C9.47329 0.57315 9.38783 0.445762 9.2801 0.338457C9.17236 0.231153 9.04447 0.146035 8.90371 0.0879622C8.76295 0.0298896 8.61208 -2.26127e-09 8.45972 0L5.36758 0C4.23986 0.00106141 3.15863 0.447737 2.36121 1.24199C1.56378 2.03624 1.11532 3.11317 1.11426 4.23641L1.11426 54.7636C1.11532 55.8868 1.56378 56.9638 2.36121 57.758C3.15863 58.5523 4.23986 58.9989 5.36758 59H47.1261C47.2812 59.0046 47.4357 58.978 47.5804 58.922C47.7251 58.866 47.8571 58.7817 47.9684 58.674C48.0798 58.5663 48.1683 58.4374 48.2288 58.295C48.2892 58.1526 48.3204 57.9995 48.3204 57.8449C48.3204 57.6903 48.2892 57.5373 48.2288 57.3949C48.1683 57.2525 48.0798 57.1236 47.9684 57.0159C47.8571 56.9082 47.7251 56.8238 47.5804 56.7678C47.4357 56.7118 47.2812 56.6853 47.1261 56.6899H47.1281Z" fill="#FF650C"/>
<path d="M23.9275 13.7615C23.7235 13.7612 23.5231 13.8145 23.3464 13.9161C23.1697 14.0176 23.0231 14.1638 22.9213 14.3398L17.0711 24.4352H10.7811C10.626 24.4307 10.4715 24.4572 10.3268 24.5132C10.1821 24.5692 10.0501 24.6535 9.93877 24.7612C9.8274 24.869 9.73886 24.9978 9.6784 25.1402C9.61794 25.2826 9.58679 25.4357 9.58679 25.5903C9.58679 25.7449 9.61794 25.898 9.6784 26.0404C9.73886 26.1828 9.8274 26.3116 9.93877 26.4194C10.0501 26.5271 10.1821 26.6114 10.3268 26.6674C10.4715 26.7234 10.626 26.7499 10.7811 26.7454H17.0711L22.9233 36.8408C23.0251 37.0168 23.1717 37.163 23.3484 37.2645C23.5251 37.3661 23.7255 37.4194 23.9295 37.4191H36.3061C36.5101 37.4194 36.7105 37.3661 36.8872 37.2645C37.0639 37.163 37.2105 37.0168 37.3123 36.8408L43.1645 26.7454H49.4555C49.7571 26.7365 50.0435 26.6109 50.2537 26.3953C50.4639 26.1796 50.5815 25.8909 50.5815 25.5903C50.5815 25.2897 50.4639 25.001 50.2537 24.7853C50.0435 24.5697 49.7571 24.4441 49.4555 24.4352H43.1575L37.3053 14.3398C37.2035 14.1638 37.0568 14.0176 36.8802 13.9161C36.7035 13.8145 36.503 13.7612 36.2991 13.7615H23.9275ZM35.6279 35.1079H24.5976L19.7506 26.7454H23.6437C23.9165 28.2571 24.714 29.6252 25.8969 30.6105C27.0798 31.5959 28.5727 32.1357 30.1148 32.1357C31.6568 32.1357 33.1498 31.5959 34.3327 30.6105C35.5156 29.6252 36.3131 28.2571 36.5858 26.7454H40.4789L35.6279 35.1079ZM34.2041 26.7454C33.9514 27.6326 33.415 28.4134 32.6764 28.9695C31.9377 29.5255 31.0371 29.8263 30.1113 29.8263C29.1854 29.8263 28.2848 29.5255 27.5461 28.9695C26.8075 28.4134 26.2711 27.6326 26.0184 26.7454H34.2041ZM26.0225 24.4342C26.2748 23.5469 26.811 22.7658 27.5496 22.2096C28.2882 21.6533 29.1888 21.3524 30.1148 21.3524C31.0407 21.3524 31.9414 21.6533 32.68 22.2096C33.4186 22.7658 33.9548 23.5469 34.2071 24.4342H26.0225ZM40.4789 24.4342H36.5848C36.3127 22.9222 35.5155 21.5536 34.3326 20.5678C33.1497 19.5821 31.6566 19.042 30.1143 19.042C28.572 19.042 27.0788 19.5821 25.896 20.5678C24.7131 21.5536 23.9159 22.9222 23.6437 24.4342H19.7506L24.5976 16.0727H35.6279L40.4789 24.4342Z" fill="#FF650C"/>
<path d="M37.8466 12.9917C38.0377 12.9918 38.226 12.9448 38.3945 12.8549C38.563 12.765 38.7066 12.6351 38.8126 12.4766L41.5616 8.36746H45.5804C45.7356 8.37201 45.8901 8.3455 46.0348 8.2895C46.1795 8.2335 46.3114 8.14915 46.4228 8.04144C46.5341 7.93374 46.6227 7.80486 46.6831 7.66246C46.7436 7.52005 46.7747 7.36701 46.7747 7.21239C46.7747 7.05777 46.7436 6.90473 46.6831 6.76233C46.6227 6.61992 46.5341 6.49105 46.4228 6.38334C46.3114 6.27563 46.1795 6.19128 46.0348 6.13528C45.8901 6.07928 45.7356 6.05277 45.5804 6.05732H40.9407C40.7498 6.05725 40.5618 6.10414 40.3935 6.19383C40.2251 6.28353 40.0816 6.41325 39.9757 6.57147L36.8826 11.1947C36.7664 11.3687 36.6998 11.5709 36.6897 11.7796C36.6796 11.9883 36.7265 12.1959 36.8254 12.3802C36.9242 12.5645 37.0714 12.7187 37.2512 12.8264C37.431 12.9341 37.6368 12.9912 37.8466 12.9917Z" fill="#FF650C"/>
<path d="M8.45979 12.9909H13.1005C13.4022 12.982 13.6885 12.8564 13.8987 12.6408C14.1089 12.4251 14.2265 12.1364 14.2265 11.8358C14.2265 11.5352 14.1089 11.2465 13.8987 11.0308C13.6885 10.8152 13.4022 10.6896 13.1005 10.6807H8.45979C8.30462 10.6762 8.15012 10.7027 8.00542 10.7587C7.86073 10.8147 7.72879 10.899 7.61742 11.0068C7.50605 11.1145 7.41751 11.2433 7.35705 11.3857C7.29659 11.5281 7.26544 11.6812 7.26544 11.8358C7.26544 11.9904 7.29659 12.1435 7.35705 12.2859C7.41751 12.4283 7.50605 12.5571 7.61742 12.6649C7.72879 12.7726 7.86073 12.8569 8.00542 12.9129C8.15012 12.9689 8.30462 12.9954 8.45979 12.9909Z" fill="#FF650C"/>
<path d="M10.0073 43.0315H8.45968C8.15198 43.0315 7.85689 43.1532 7.63931 43.37C7.42173 43.5867 7.2995 43.8806 7.2995 44.1871C7.2995 44.4935 7.42173 44.7875 7.63931 45.0042C7.85689 45.2209 8.15198 45.3426 8.45968 45.3426H10.0073C10.315 45.3426 10.6101 45.2209 10.8276 45.0042C11.0452 44.7875 11.1674 44.4935 11.1674 44.1871C11.1674 43.8806 11.0452 43.5867 10.8276 43.37C10.6101 43.1532 10.315 43.0315 10.0073 43.0315Z" fill="#FF650C"/>
<path d="M10.0073 49.955H8.45968C8.15198 49.955 7.85689 50.0767 7.63931 50.2934C7.42173 50.5101 7.2995 50.804 7.2995 51.1105C7.2995 51.417 7.42173 51.7109 7.63931 51.9276C7.85689 52.1443 8.15198 52.2661 8.45968 52.2661H10.0073C10.315 52.2661 10.6101 52.1443 10.8276 51.9276C11.0452 51.7109 11.1674 51.417 11.1674 51.1105C11.1674 50.804 11.0452 50.5101 10.8276 50.2934C10.6101 50.0767 10.315 49.955 10.0073 49.955Z" fill="#FF650C"/>
<path d="M17.7412 6.05946H8.45979C8.30462 6.05491 8.15012 6.08142 8.00542 6.13742C7.86073 6.19341 7.72879 6.27777 7.61742 6.38547C7.50605 6.49318 7.41751 6.62205 7.35705 6.76446C7.29659 6.90687 7.26544 7.05991 7.26544 7.21452C7.26544 7.36914 7.29659 7.52218 7.35705 7.66459C7.41751 7.80699 7.50605 7.93587 7.61742 8.04357C7.72879 8.15128 7.86073 8.23563 8.00542 8.29163C8.15012 8.34763 8.30462 8.37414 8.45979 8.36959H17.7402C18.0419 8.36074 18.3282 8.23516 18.5384 8.01951C18.7487 7.80386 18.8662 7.51511 18.8662 7.21452C18.8662 6.91394 18.7487 6.62519 18.5384 6.40954C18.3282 6.19389 18.0419 6.06831 17.7402 6.05946H17.7412Z" fill="#FF650C"/>
<path d="M54.861 0H13.1026C12.7949 4.56683e-09 12.4998 0.121747 12.2822 0.338457C12.0646 0.555168 11.9424 0.849091 11.9424 1.15557C11.9424 1.46204 12.0646 1.75596 12.2822 1.97267C12.4998 2.18938 12.7949 2.31113 13.1026 2.31113H54.861C55.3736 2.31166 55.8651 2.51464 56.2276 2.87556C56.5902 3.23647 56.7942 3.72586 56.795 4.23641V54.7646C56.7942 55.2751 56.5902 55.7645 56.2276 56.1254C55.8651 56.4864 55.3736 56.6893 54.861 56.6899H51.7679C51.6127 56.6853 51.4582 56.7118 51.3135 56.7678C51.1688 56.8238 51.0369 56.9082 50.9255 57.0159C50.8142 57.1236 50.7256 57.2525 50.6652 57.3949C50.6047 57.5373 50.5736 57.6903 50.5736 57.8449C50.5736 57.9995 50.6047 58.1526 50.6652 58.295C50.7256 58.4374 50.8142 58.5663 50.9255 58.674C51.0369 58.7817 51.1688 58.866 51.3135 58.922C51.4582 58.978 51.6127 59.0046 51.7679 59H54.861C55.9886 58.9989 57.0697 58.5524 57.8671 57.7584C58.6645 56.9643 59.113 55.8877 59.1144 54.7646V4.23641C59.1133 3.11317 58.6648 2.03624 57.8674 1.24199C57.07 0.447737 55.9888 0.00106141 54.861 0V0Z" fill="#FF650C"/>
<path d="M34.7545 49.955H33.2129C32.9052 49.955 32.6101 50.0767 32.3925 50.2934C32.175 50.5101 32.0527 50.804 32.0527 51.1105C32.0527 51.417 32.175 51.7109 32.3925 51.9276C32.6101 52.1443 32.9052 52.2661 33.2129 52.2661H34.7595C35.0672 52.2661 35.3623 52.1443 35.5799 51.9276C35.7974 51.7109 35.9197 51.417 35.9197 51.1105C35.9197 50.804 35.7974 50.5101 35.5799 50.2934C35.3623 50.0767 35.0672 49.955 34.7595 49.955H34.7545Z" fill="#FF650C"/>
<path d="M14.648 45.3427H19.2878C19.4788 45.3427 19.6668 45.2956 19.8351 45.2058C20.0035 45.1159 20.1469 44.986 20.2527 44.8276L23.3459 40.2063C23.4348 40.0802 23.4974 39.9377 23.5302 39.7871C23.563 39.6365 23.5652 39.4809 23.5367 39.3294C23.5082 39.178 23.4496 39.0337 23.3643 38.9052C23.279 38.7766 23.1687 38.6664 23.04 38.5809C22.9113 38.4954 22.7667 38.4364 22.6148 38.4074C22.4629 38.3784 22.3066 38.3799 22.1553 38.4119C22.004 38.4439 21.8606 38.5058 21.7336 38.5938C21.6067 38.6818 21.4986 38.7942 21.4159 38.9245L18.6669 43.0336H14.648C14.3403 43.0336 14.0452 43.1553 13.8277 43.372C13.6101 43.5887 13.4879 43.8827 13.4879 44.1891C13.4879 44.4956 13.6101 44.7895 13.8277 45.0062C14.0452 45.223 14.3403 45.3447 14.648 45.3447V45.3427Z" fill="#FF650C"/>
<path d="M14.648 52.2661H20.8363C21.144 52.2661 21.4391 52.1443 21.6567 51.9276C21.8743 51.7109 21.9965 51.417 21.9965 51.1105C21.9965 50.804 21.8743 50.5101 21.6567 50.2934C21.4391 50.0767 21.144 49.955 20.8363 49.955H14.648C14.3403 49.955 14.0452 50.0767 13.8277 50.2934C13.6101 50.5101 13.4879 50.804 13.4879 51.1105C13.4879 51.417 13.6101 51.7109 13.8277 51.9276C14.0452 52.1443 14.3403 52.2661 14.648 52.2661Z" fill="#FF650C"/>
</g>
</g>
<defs>
<clipPath id="clip0_101_416">
<rect width="59" height="59" fill="white" transform="translate(0.5)"/>
</clipPath>
<clipPath id="clip1_101_416">
<rect width="58" height="59" fill="white" transform="translate(1.11426)"/>
</clipPath>
</defs>
</svg>
