<svg width="60" height="59" viewBox="0 0 60 59" fill="none" xmlns="http://www.w3.org/2000/svg">
<path d="M41.7518 49.4355C41.1157 49.4355 40.5994 49.9518 40.5994 50.5879C40.5994 51.224 41.1157 51.7402 41.7518 51.7402C42.3879 51.7402 42.9041 51.224 42.9041 50.5879C42.9041 49.9518 42.3879 49.4355 41.7518 49.4355Z" fill="#FF650C"/>
<path d="M18.7049 49.4355C18.0688 49.4355 17.5526 49.9518 17.5526 50.5879C17.5526 51.224 18.0688 51.7402 18.7049 51.7402C19.341 51.7402 19.8572 51.224 19.8572 50.5879C19.8572 49.9518 19.341 49.4355 18.7049 49.4355Z" fill="#FF650C"/>
<path d="M52.3124 43.4676C51.0152 41.4597 49.2327 39.8643 47.1445 38.834C46.9684 38.6705 46.742 38.5609 46.4902 38.5329C44.9798 37.8917 43.3878 37.5664 41.7518 37.5664H38.2947V34.5262C40.2953 32.8096 41.7336 30.5361 42.431 28.002H42.9041C45.4457 28.002 47.5135 25.9342 47.5135 23.3926C47.5135 22.1881 47.0486 21.0907 46.2895 20.2686C46.3619 20.207 46.4327 20.143 46.5007 20.0751C47.1538 19.4219 47.5135 18.5539 47.5135 17.6309C47.5135 16.114 46.531 14.8231 45.1693 14.3587C44.7622 9.05973 41.0432 4.53148 35.9228 3.11225C35.6193 1.52755 34.3115 0 32.533 0H27.9236C26.1451 0 24.8373 1.52755 24.5339 3.11225C19.4139 4.53136 15.6953 9.0588 15.2875 14.357C14.7918 14.5252 14.3372 14.8055 13.956 15.1866C13.3028 15.8398 12.9432 16.7078 12.9432 17.6309C12.9432 18.6868 13.4196 19.6331 14.1681 20.2677C13.4085 21.0897 12.9432 22.1877 12.9432 23.3926C12.9432 25.9342 15.0109 28.002 17.5526 28.002H18.0225C18.6046 30.1173 19.7085 32.0594 21.2483 33.6635C21.5377 33.9652 21.8445 34.2526 22.1619 34.5253V37.5664H18.7049C17.0688 37.5664 15.4767 37.8917 13.9665 38.5328C13.7148 38.5609 13.4882 38.6703 13.3123 38.8339C11.2239 39.8643 9.44143 41.4597 8.14424 43.4674C6.76051 45.6093 6.02911 48.0715 6.02911 50.5879V57.8477C6.02911 58.484 6.54502 59 7.18146 59H53.2752C53.9116 59 54.4276 58.484 54.4276 57.8477V50.5879C54.4276 48.0715 53.6962 45.6093 52.3124 43.4676ZM12.9432 56.6953H8.3338V50.5879C8.3338 47.0828 10.1294 43.7233 12.9432 41.7289V56.6953ZM42.9041 25.6973H42.8516C42.8859 25.3139 42.9041 24.9291 42.9041 24.5449V21.0879C44.1749 21.0879 45.2088 22.1218 45.2088 23.3926C45.2088 24.6634 44.1749 25.6973 42.9041 25.6973ZM24.4666 5.54727V10.7168C24.4666 11.3532 24.9825 11.8691 25.619 11.8691C26.2554 11.8691 26.7713 11.3532 26.7713 10.7168V4.04046C26.7713 4.03747 26.7713 4.03447 26.7713 4.03147V3.80273C26.7713 3.08874 27.3744 2.30469 27.9236 2.30469H32.533C33.0822 2.30469 33.6854 3.08874 33.6854 3.80273V4.03147C33.6854 4.03447 33.6854 4.03747 33.6854 4.04046V10.7168C33.6854 11.3532 34.2013 11.8691 34.8377 11.8691C35.4741 11.8691 35.9901 11.3532 35.9901 10.7168V5.54727C39.711 6.86405 42.3971 10.2312 42.8397 14.1738H17.617C18.0596 10.2312 20.7457 6.86405 24.4666 5.54727ZM17.5526 25.6973C16.2817 25.6973 15.2479 24.6634 15.2479 23.3926C15.2479 22.1218 16.2817 21.0879 17.5526 21.0879V24.5449C17.5526 24.9291 17.5708 25.314 17.6051 25.6973H17.5526ZM17.5526 18.7832H16.4002C15.7648 18.7832 15.2479 18.2663 15.2479 17.6309C15.2479 17.3234 15.3678 17.0341 15.5856 16.8164C15.8035 16.5985 16.0928 16.4785 16.4002 16.4785H44.0565C44.6919 16.4785 45.2088 16.9955 45.2088 17.6309C45.2088 17.9383 45.0888 18.2277 44.871 18.4453C44.6533 18.6632 44.3639 18.7832 44.0565 18.7832H42.9041H41.7518H18.7049H17.5526ZM20.0666 26.6402C20.0643 26.6277 20.0621 26.6152 20.0594 26.6029C19.9256 25.9266 19.8572 25.2344 19.8572 24.5449V21.0879H40.5994V24.5449C40.5994 25.2338 40.5311 25.9255 40.3973 26.6024C40.3945 26.6149 40.3924 26.6274 40.39 26.64C39.8751 29.2105 38.4498 31.5115 36.3745 33.1209C34.5715 34.5215 32.4462 35.2617 30.2283 35.2617C28.0104 35.2617 25.8851 34.5215 24.0805 33.1196C23.6673 32.8 23.2742 32.4463 22.9114 32.068C21.4577 30.5536 20.4745 28.6775 20.0666 26.6402ZM29.076 56.6953H19.8572V54.0449C19.8572 53.4085 19.3413 52.8926 18.7049 52.8926C18.0685 52.8926 17.5526 53.4085 17.5526 54.0449V56.6953H15.2479V40.5019C15.9957 40.2199 16.7662 40.032 17.5526 39.9393V47.1309C17.5526 47.7673 18.0685 48.2832 18.7049 48.2832C19.3413 48.2832 19.8572 47.7673 19.8572 47.1309V39.8711H22.8205L29.076 46.4395V56.6953ZM24.4666 38.2578V36.1115C26.2448 37.0673 28.2033 37.5664 30.2283 37.5664C32.2535 37.5664 34.2121 37.0672 35.9901 36.1116V38.2578L30.2283 44.3076L24.4666 38.2578ZM45.2088 56.6953H42.9041V54.0449C42.9041 53.4085 42.3882 52.8926 41.7518 52.8926C41.1153 52.8926 40.5994 53.4085 40.5994 54.0449V56.6953H31.3807V46.4395L37.6362 39.8711H40.5994V47.1309C40.5994 47.7673 41.1153 48.2832 41.7518 48.2832C42.3882 48.2832 42.9041 47.7673 42.9041 47.1309V39.9393C43.6905 40.032 44.4608 40.22 45.2088 40.502V56.6953ZM52.1229 56.6953H47.5135V41.7288C50.3273 43.7231 52.1229 47.0827 52.1229 50.5879V56.6953Z" fill="#FF650C"/>
</svg>
