<svg width="60" height="59" viewBox="0 0 60 59" fill="none" xmlns="http://www.w3.org/2000/svg">
<path d="M45.6614 57C48.1169 57 50.1145 55.0023 50.1145 52.5469V6.23259V5.30189V4.45312C50.1145 1.99767 48.1169 0 45.6614 0H13.5953C11.1399 0 9.14221 1.99767 9.14221 4.45312V5.30189V6.23259V52.5469C9.14221 55.0023 11.1399 57 13.5953 57H45.6614ZM48.3333 9.79688C48.3333 11.27 47.1345 12.4688 45.6614 12.4688H13.5953C12.1222 12.4688 10.9235 11.27 10.9235 9.79688V9.77283C11.6698 10.3384 12.5889 10.6857 13.5953 10.6857H45.6614C46.6678 10.6857 47.5869 10.3375 48.3333 9.77283V9.79688ZM10.9235 13.3371C11.6698 13.9027 12.5889 14.25 13.5953 14.25H45.6614C46.6678 14.25 47.5869 13.9018 48.3333 13.3371V48.9844C48.3333 50.4575 47.1345 51.6562 45.6614 51.6562H13.5953C12.1222 51.6562 10.9235 50.4575 10.9235 48.9844V13.3371ZM10.9235 4.45312C10.9235 2.98003 12.1222 1.78125 13.5953 1.78125H45.6614C47.1345 1.78125 48.3333 2.98003 48.3333 4.45312V5.30189V6.23259C48.3333 7.70569 47.1345 8.90447 45.6614 8.90447H13.5953C12.1222 8.90447 10.9235 7.70569 10.9235 6.23259V5.30189V4.45312ZM10.9235 52.5469V52.5246C11.6698 53.0902 12.5889 53.4375 13.5953 53.4375H45.6614C46.6678 53.4375 47.5869 53.0893 48.3333 52.5246V52.5469C48.3333 54.02 47.1345 55.2188 45.6614 55.2188H13.5953C12.1222 55.2188 10.9235 54.02 10.9235 52.5469Z" fill="#FF650C"/>
<path d="M13.5953 6.23438H45.6578C46.1504 6.23438 46.5485 5.83627 46.5485 5.34375C46.5485 4.85123 46.1504 4.45312 45.6578 4.45312H13.5953C13.1028 4.45312 12.7047 4.85123 12.7047 5.34375C12.7047 5.83627 13.1028 6.23438 13.5953 6.23438Z" fill="#FF650C"/>
<path d="M29.6269 41.8594C32.957 41.8594 36.0884 40.5626 38.4432 38.2069C43.3051 33.345 43.3051 25.4354 38.4432 20.5734C36.0884 18.2186 32.957 16.9219 29.6269 16.9219C26.2969 16.9219 23.1654 18.2186 20.8106 20.5743C15.9487 25.4362 15.9487 33.3459 20.8106 38.2078C23.1654 40.5626 26.2969 41.8594 29.6269 41.8594ZM22.07 21.8337C24.0881 19.8146 26.7725 18.7031 29.6269 18.7031C32.4814 18.7031 35.1657 19.8146 37.1839 21.8337C41.3511 26.0009 41.3511 32.7812 37.1839 36.9485C35.1657 38.9666 32.4814 40.0781 29.6269 40.0781C26.7725 40.0781 24.0881 38.9666 22.07 36.9476C17.9027 32.7812 17.9027 26 22.07 21.8337Z" fill="#FF650C"/>
<path d="M24.5876 37.0956C25.2725 37.0956 25.9565 36.8355 26.4767 36.3145L29.6241 33.167C29.9724 32.8188 29.9724 32.2559 29.6241 31.9077L28.9962 31.2798L29.6909 30.586C30.4141 31.0652 31.2611 31.3243 32.1473 31.3243C33.3354 31.3243 34.454 30.8603 35.2956 30.0196C36.8774 28.4378 36.8409 23.9509 36.8177 23.0665C36.8043 22.5935 36.424 22.2124 35.9502 22.199C35.9502 22.199 35.8193 22.1954 35.5931 22.1954C33.6996 22.1954 30.325 22.394 28.998 23.7211C27.4777 25.2414 27.2889 27.5962 28.4316 29.3249L27.736 30.0187L27.1054 29.3872C26.7572 29.039 26.1943 29.039 25.8461 29.3872L22.6986 32.5347C21.6566 33.5767 21.6566 35.2716 22.6986 36.3145C23.2197 36.8355 23.9037 37.0956 24.5876 37.0956ZM30.2574 24.9813C30.814 24.4247 32.6995 24.0372 35.0373 23.9838C34.9964 25.8087 34.698 28.0985 34.0363 28.7602C33.0254 29.7693 31.27 29.7684 30.2591 28.762C30.2591 28.7611 30.2583 28.7611 30.2583 28.7602C30.2574 28.7593 30.2565 28.7593 30.2565 28.7593C29.2162 27.7164 29.2162 26.0233 30.2574 24.9813ZM23.958 35.0552C23.6106 34.7069 23.6106 34.1432 23.958 33.7949L26.4758 31.2771L27.1028 31.905C27.1037 31.9059 27.1046 31.9077 27.1054 31.9086C27.1063 31.9095 27.1081 31.9104 27.109 31.9113L27.7351 32.5374L25.2173 35.0552C24.8691 35.4016 24.3053 35.4016 23.958 35.0552Z" fill="#FF650C"/>
<path d="M18.0487 46.3285H41.205C41.6975 46.3285 42.0956 45.9304 42.0956 45.4379C42.0956 44.9454 41.6975 44.5472 41.205 44.5472H18.0487C17.5562 44.5472 17.1581 44.9454 17.1581 45.4379C17.1581 45.9304 17.5562 46.3285 18.0487 46.3285Z" fill="#FF650C"/>
<path d="M35.8469 47.222H23.4066C22.9141 47.222 22.516 47.6202 22.516 48.1127C22.516 48.6052 22.9141 49.0033 23.4066 49.0033H35.8478C36.3403 49.0033 36.7384 48.6052 36.7384 48.1127C36.7384 47.6202 36.3394 47.222 35.8469 47.222Z" fill="#FF650C"/>
</svg>
