<svg width="59" height="59" viewBox="0 0 59 59" fill="none" xmlns="http://www.w3.org/2000/svg">
<path d="M16.2549 49.9863C15.6404 49.9863 15.1416 50.4851 15.1416 51.0996C15.1416 51.7141 15.6404 52.2129 16.2549 52.2129C16.8694 52.2129 17.3682 51.7141 17.3682 51.0996C17.3682 50.4851 16.8694 49.9863 16.2549 49.9863Z" fill="#FF650C"/>
<path d="M31.8408 49.9863H20.708C20.0931 49.9863 19.5947 50.4847 19.5947 51.0996C19.5947 51.7145 20.0931 52.2129 20.708 52.2129H31.8408C32.4557 52.2129 32.9541 51.7145 32.9541 51.0996C32.9541 50.4847 32.4557 49.9863 31.8408 49.9863Z" fill="#FF650C"/>
<path d="M58.114 14.4679C58.1119 14.0004 57.8175 13.5951 57.3999 13.4331L26.225 0.808688C25.6187 0.286002 24.855 0 24.0479 0C22.89 0 21.8128 0.612193 21.2088 1.5842L1.64763 13.5224C1.31743 13.7236 1.11426 14.0919 1.11426 14.4727V18.9258C1.11426 19.5406 1.61267 20.0391 2.22754 20.0391H3.34082V25.6055C3.34082 26.2203 3.83924 26.7188 4.4541 26.7188H14.0283C14.6432 26.7188 15.1416 26.2203 15.1416 25.6055V20.0391H17.3682C17.3682 21.1728 17.3682 44.7919 17.3682 45.5332H14.0283C12.1867 45.5332 10.6885 47.0315 10.6885 48.873V55.8867C10.6885 56.5015 11.1869 57 11.8018 57H36.2939C36.9088 57 37.4072 56.5015 37.4072 55.8867V48.873C37.4072 47.0315 35.909 45.5332 34.0674 45.5332H30.7275C30.7275 44.3726 30.7275 21.1849 30.7275 20.0391H46.9814V24.5701C46.9814 24.8654 47.0988 25.1486 47.3075 25.3573L49.208 27.2579V33.9232C47.912 34.3827 46.9814 35.6209 46.9814 37.0724C46.9814 38.914 48.4797 40.4122 50.3213 40.4122C51.6084 40.4122 52.7946 39.6599 53.3434 38.4955C53.6055 37.9393 53.3671 37.276 52.8109 37.0138C52.2546 36.7518 51.5913 36.9901 51.3293 37.5463C51.1462 37.9346 50.7506 38.1855 50.3213 38.1855C49.7074 38.1855 49.208 37.6861 49.208 37.0723C49.208 36.4584 49.7074 35.959 50.3213 35.959C50.9362 35.959 51.4346 35.4606 51.4346 34.8457V27.2579L53.3351 25.3574C53.5438 25.1487 53.6611 24.8655 53.6611 24.5702V20.0391H57.001C57.6158 20.0391 58.1143 19.5406 58.1143 18.9258V14.4727C58.1143 14.471 58.114 14.4694 58.114 14.4679ZM22.9346 3.33984C22.9346 2.70494 23.4554 2.22656 24.0479 2.22656C24.6592 2.22656 25.1611 2.72253 25.1611 3.33984V11.1328H22.9346V3.33984ZM21.8213 13.3594C22.4543 13.3594 27.5866 13.3594 28.501 13.3594C28.501 14.1572 28.501 20.133 28.501 20.968L21.1139 13.3594H21.8213ZM21.1139 36.293H28.501V43.9016L21.1139 36.293ZM26.9818 45.5332H19.5947V37.9246L26.9818 45.5332ZM19.5947 34.0664V26.4578L26.9818 34.0664H19.5947ZM21.1139 24.8262H28.501V32.4348L21.1139 24.8262ZM19.5947 22.5996C19.5947 21.893 19.5947 15.8166 19.5947 14.991L26.9818 22.5996H19.5947ZM20.708 4.49844V11.1328H18.4814C18.4762 11.1328 18.4711 11.1335 18.4659 11.1336C18.4516 11.1338 18.4374 11.1347 18.423 11.1354C18.4085 11.1362 18.3941 11.1366 18.3796 11.1379C18.3683 11.1389 18.3573 11.1405 18.3463 11.1418C18.3409 11.1425 18.3356 11.1424 18.3303 11.1432L7.35709 12.6463L20.708 4.49844ZM12.915 24.4922H5.56738V20.0391H12.915V24.4922ZM3.34082 17.8125V15.4439L17.3682 13.5224V17.8125C12.4706 17.8125 14.1438 17.8125 3.34082 17.8125ZM34.0674 47.7598C34.6812 47.7598 35.1807 48.2592 35.1807 48.873V54.7734H12.915V48.873C12.915 48.2592 13.4145 47.7598 14.0283 47.7598C14.5643 47.7598 33.5319 47.7598 34.0674 47.7598ZM29.7045 11.1365C29.6902 11.1354 29.6759 11.1358 29.6616 11.1353C29.6457 11.1345 29.6302 11.1328 29.6143 11.1328H27.3877V3.68173L49.8387 12.7733L29.7045 11.1365ZM51.4346 24.109L50.3213 25.2223L49.208 24.109V20.0391H51.4346V24.109ZM55.8877 17.8125H30.7275V13.4536L55.8877 15.4991V17.8125Z" fill="#FF650C"/>
</svg>
